<?xml version="1.0" encoding="UTF-8"?>
<svg id="Layer_2" data-name="Layer 2" xmlns="http://www.w3.org/2000/svg" viewBox="0 0 1317.06 417.87">
  <defs>
    <style>
      .cls-1, .cls-2 {
        stroke-width: 0px;
      }

      .cls-2 {
        fill: #003da5;
      }
    </style>
  </defs>
  <g id="Logos">
    <g>
      <g>
        <g>
          <path class="cls-1" d="M601.33,69.44v198.11h-45.85v-81.22h-89.99v81.22h-45.85V69.44h45.85v78.11h89.99v-78.11h45.85Z"/>
          <path class="cls-1" d="M793.5,203.87h-115.18c2.08,9.44,6.98,16.89,14.71,22.36,7.74,5.47,17.37,8.2,28.87,8.2,7.93,0,14.95-1.17,21.09-3.53,6.13-2.36,11.84-6.09,17.13-11.18l23.48,25.47c-14.34,16.41-35.28,24.62-62.83,24.62-17.17,0-32.36-3.35-45.56-10.05-13.21-6.69-23.4-15.99-30.58-27.88-7.17-11.88-10.76-25.37-10.76-40.47s3.55-28.34,10.62-40.32c7.08-11.98,16.78-21.32,29.15-28.02,12.36-6.7,26.18-10.05,41.46-10.05s28.39,3.21,40.46,9.62c12.08,6.42,21.55,15.61,28.44,27.59,6.88,11.99,10.33,25.9,10.33,41.74,0,.57-.28,4.53-.85,11.89ZM690.2,154.9c-6.8,5.66-10.94,13.4-12.45,23.2h75c-1.52-9.62-5.66-17.31-12.46-23.06-6.78-5.75-15.09-8.63-24.9-8.63s-18.39,2.83-25.19,8.49Z"/>
          <path class="cls-1" d="M837.92,265.14c-12.08-3.11-21.7-7.02-28.86-11.74l14.71-31.7c6.78,4.35,14.99,7.88,24.62,10.62,9.62,2.74,19.06,4.11,28.3,4.11,18.69,0,28.03-4.62,28.03-13.87,0-4.34-2.55-7.45-7.65-9.34-5.09-1.88-12.92-3.49-23.48-4.81-12.45-1.88-22.74-4.05-30.85-6.5-8.1-2.45-15.14-6.8-21.07-13.02-5.94-6.22-8.92-15.09-8.92-26.6,0-9.62,2.77-18.15,8.34-25.61,5.56-7.45,13.67-13.25,24.34-17.41,10.66-4.15,23.26-6.22,37.79-6.22,10.76,0,21.46,1.18,32.12,3.54,10.65,2.36,19.47,5.61,26.46,9.76l-14.71,31.41c-13.39-7.54-28.02-11.32-43.86-11.32-9.44,0-16.51,1.32-21.23,3.97-4.72,2.64-7.06,6.04-7.06,10.18,0,4.72,2.55,8.02,7.64,9.91,5.09,1.89,13.2,3.68,24.34,5.38,12.45,2.08,22.64,4.29,30.56,6.65,7.93,2.36,14.81,6.65,20.66,12.88,5.85,6.22,8.77,14.91,8.77,26.04,0,9.44-2.83,17.83-8.49,25.18-5.65,7.36-13.91,13.07-24.76,17.13-10.85,4.05-23.72,6.08-38.63,6.08-12.64,0-25-1.56-37.08-4.67Z"/>
          <path class="cls-1" d="M1072.26,260.18c-4.35,3.21-9.68,5.62-15.99,7.22-6.32,1.6-12.97,2.41-19.95,2.41-18.11,0-32.12-4.62-42.02-13.87-9.9-9.24-14.86-22.82-14.86-40.75v-62.55h-23.48v-33.96h23.48v-37.07h44.16v37.07h37.92v33.96h-37.92v61.98c0,6.41,1.64,11.37,4.94,14.85,3.31,3.49,7.97,5.24,14.01,5.24,6.98,0,12.93-1.89,17.83-5.66l11.89,31.13Z"/>
          <path class="cls-2" d="M1099.42,86.98c-5.1-4.71-7.65-10.56-7.65-17.55s2.55-12.83,7.65-17.55c5.09-4.71,11.69-7.08,19.81-7.08s14.71,2.27,19.81,6.8c5.1,4.52,7.65,10.18,7.65,16.98,0,7.36-2.55,13.44-7.65,18.25-5.09,4.81-11.69,7.22-19.81,7.22s-14.71-2.36-19.81-7.08Z"/>
          <rect class="cls-1" x="1097.16" y="115.29" width="44.14" height="152.26"/>
          <path class="cls-1" d="M1298.09,129.86c12.65,11.22,18.97,28.16,18.97,50.8v86.88h-41.32v-18.96c-8.3,14.15-23.78,21.23-46.41,21.23-11.7,0-21.85-1.99-30.43-5.94-8.58-3.97-15.14-9.43-19.67-16.41-4.52-6.98-6.78-14.9-6.78-23.77,0-14.15,5.32-25.28,15.98-33.4,10.66-8.1,27.12-12.17,49.39-12.17h35.09c0-9.62-2.93-17.02-8.78-22.21-5.85-5.19-14.62-7.78-26.31-7.78-8.12,0-16.09,1.27-23.92,3.82-7.82,2.55-14.47,5.99-19.95,10.33l-15.85-30.85c8.3-5.84,18.26-10.37,29.86-13.58,11.61-3.21,23.54-4.81,35.81-4.81,23.58,0,41.69,5.62,54.33,16.84ZM1260.45,234.85c5.85-3.49,10-8.63,12.46-15.42v-15.57h-30.28c-18.11,0-27.18,5.94-27.18,17.83,0,5.66,2.21,10.15,6.65,13.45,4.44,3.3,10.52,4.95,18.26,4.95s14.23-1.75,20.09-5.24Z"/>
        </g>
        <g>
          <path class="cls-2" d="M738.89,299.59h-25.61v-6.66h58.92v6.66h-25.61v66.2h-7.7v-66.2Z"/>
          <path class="cls-2" d="M824.88,340.71h-45.8c.41,5.69,2.6,10.29,6.55,13.79,3.96,3.5,8.95,5.26,14.99,5.26,3.41,0,6.53-.61,9.38-1.82,2.84-1.21,5.31-3,7.39-5.36l4.16,4.79c-2.43,2.91-5.46,5.14-9.11,6.66-3.64,1.53-7.65,2.29-12.02,2.29-5.62,0-10.6-1.2-14.93-3.59-4.34-2.4-7.72-5.71-10.15-9.94-2.43-4.23-3.64-9.02-3.64-14.37s1.16-10.13,3.48-14.36c2.33-4.23,5.52-7.53,9.58-9.89,4.06-2.36,8.62-3.54,13.69-3.54s9.61,1.18,13.63,3.54c4.02,2.36,7.19,5.64,9.48,9.84,2.28,4.2,3.43,9,3.43,14.41l-.1,2.29ZM785.16,322.03c-3.57,3.37-5.6,7.76-6.08,13.17h38.82c-.49-5.41-2.52-9.8-6.09-13.17-3.57-3.36-8.03-5.05-13.37-5.05s-9.7,1.68-13.28,5.05Z"/>
          <path class="cls-2" d="M848.24,362.78c-4.27-2.36-7.62-5.67-10.05-9.94-2.43-4.27-3.64-9.07-3.64-14.42s1.21-10.13,3.64-14.36c2.43-4.23,5.78-7.53,10.05-9.89,4.27-2.36,9.1-3.54,14.52-3.54,4.72,0,8.93.92,12.64,2.76,3.71,1.84,6.64,4.53,8.8,8.07l-5.51,3.75c-1.81-2.71-4.1-4.74-6.88-6.09-2.77-1.35-5.79-2.03-9.05-2.03-3.96,0-7.51.88-10.68,2.65-3.15,1.77-5.61,4.29-7.39,7.55-1.77,3.26-2.65,6.97-2.65,11.13s.88,7.96,2.65,11.19c1.78,3.23,4.24,5.73,7.39,7.49,3.16,1.77,6.72,2.66,10.68,2.66,3.26,0,6.28-.66,9.05-1.98,2.78-1.32,5.07-3.33,6.88-6.04l5.51,3.75c-2.15,3.54-5.1,6.23-8.84,8.07-3.75,1.84-7.95,2.76-12.59,2.76-5.42,0-10.25-1.18-14.52-3.54Z"/>
          <path class="cls-2" d="M942.12,316.61c4.06,3.99,6.09,9.8,6.09,17.44v31.75h-7.39v-31.02c0-5.69-1.42-10.03-4.27-13.01-2.84-2.98-6.91-4.47-12.18-4.47-5.89,0-10.56,1.75-14,5.25-3.43,3.5-5.16,8.35-5.16,14.52v28.73h-7.39v-77.23h7.39v32.06c2.01-3.2,4.79-5.66,8.33-7.39,3.54-1.74,7.6-2.6,12.18-2.6,6.87,0,12.33,1.99,16.39,5.98Z"/>
          <path class="cls-2" d="M1012.59,316.61c4.06,3.99,6.09,9.8,6.09,17.44v31.75h-7.39v-31.02c0-5.69-1.42-10.03-4.27-13.01-2.84-2.98-6.91-4.47-12.18-4.47-5.89,0-10.56,1.75-14,5.25-3.43,3.5-5.16,8.35-5.16,14.52v28.73h-7.39v-54.75h7.08v10.1c2.01-3.33,4.8-5.92,8.37-7.76,3.57-1.84,7.72-2.76,12.44-2.76,6.87,0,12.33,1.99,16.39,5.98Z"/>
          <path class="cls-2" d="M1047.1,362.73c-4.23-2.4-7.56-5.71-9.99-9.94-2.43-4.23-3.64-9.02-3.64-14.37s1.21-10.13,3.64-14.36c2.43-4.23,5.76-7.53,9.99-9.89,4.23-2.36,8.99-3.54,14.26-3.54s10.03,1.18,14.26,3.54c4.24,2.36,7.55,5.66,9.95,9.89,2.4,4.23,3.59,9.02,3.59,14.36s-1.2,10.13-3.59,14.37c-2.4,4.23-5.71,7.55-9.95,9.94-4.23,2.39-8.98,3.59-14.26,3.59s-10.03-1.2-14.26-3.59ZM1071.82,357.1c3.09-1.77,5.5-4.29,7.23-7.55,1.74-3.26,2.61-6.98,2.61-11.14s-.87-7.87-2.61-11.13c-1.73-3.27-4.14-5.78-7.23-7.55-3.09-1.77-6.57-2.65-10.46-2.65s-7.37.88-10.46,2.65c-3.09,1.77-5.51,4.29-7.29,7.55-1.77,3.26-2.65,6.97-2.65,11.13s.88,7.88,2.65,11.14c1.78,3.26,4.2,5.78,7.29,7.55,3.09,1.77,6.58,2.66,10.46,2.66s7.37-.89,10.46-2.66Z"/>
          <path class="cls-2" d="M1104.24,288.56h7.39v77.23h-7.39v-77.23Z"/>
          <path class="cls-2" d="M1140.36,362.73c-4.23-2.4-7.56-5.71-9.99-9.94-2.43-4.23-3.64-9.02-3.64-14.37s1.21-10.13,3.64-14.36c2.43-4.23,5.76-7.53,9.99-9.89,4.23-2.36,8.99-3.54,14.26-3.54s10.03,1.18,14.26,3.54c4.24,2.36,7.55,5.66,9.95,9.89,2.4,4.23,3.59,9.02,3.59,14.36s-1.2,10.13-3.59,14.37c-2.4,4.23-5.71,7.55-9.95,9.94-4.23,2.39-8.98,3.59-14.26,3.59s-10.03-1.2-14.26-3.59ZM1165.07,357.1c3.09-1.77,5.5-4.29,7.23-7.55,1.74-3.26,2.61-6.98,2.61-11.14s-.87-7.87-2.61-11.13c-1.73-3.27-4.14-5.78-7.23-7.55-3.09-1.77-6.57-2.65-10.46-2.65s-7.37.88-10.46,2.65c-3.09,1.77-5.51,4.29-7.29,7.55-1.77,3.26-2.65,6.97-2.65,11.13s.88,7.88,2.65,11.14c1.78,3.26,4.2,5.78,7.29,7.55,3.09,1.77,6.58,2.66,10.46,2.66s7.37-.89,10.46-2.66Z"/>
          <path class="cls-2" d="M1248.2,311.05v48.09c0,9.3-2.27,16.19-6.81,20.66-4.55,4.47-11.41,6.71-20.57,6.71-5.06,0-9.87-.75-14.41-2.24-4.55-1.49-8.24-3.56-11.09-6.19l3.74-5.62c2.64,2.36,5.85,4.2,9.63,5.52,3.78,1.32,7.76,1.98,11.92,1.98,6.94,0,12.04-1.61,15.3-4.84,3.27-3.22,4.89-8.24,4.89-15.04v-6.97c-2.28,3.47-5.29,6.11-9,7.91-3.71,1.8-7.82,2.7-12.33,2.7-5.14,0-9.81-1.13-14.01-3.38-4.19-2.25-7.49-5.41-9.88-9.47-2.4-4.06-3.59-8.65-3.59-13.79s1.2-9.72,3.59-13.74c2.39-4.02,5.67-7.15,9.83-9.37,4.16-2.22,8.84-3.33,14.05-3.33,4.65,0,8.84.94,12.59,2.81,3.74,1.88,6.76,4.58,9.06,8.12v-10.51h7.07ZM1230.92,354.6c3.2-1.7,5.68-4.07,7.45-7.13,1.77-3.05,2.66-6.52,2.66-10.41s-.89-7.34-2.66-10.36c-1.77-3.02-4.24-5.38-7.39-7.08-3.16-1.7-6.75-2.55-10.77-2.55s-7.51.83-10.68,2.5c-3.15,1.67-5.61,4.02-7.39,7.08-1.77,3.05-2.65,6.52-2.65,10.41s.88,7.35,2.65,10.41c1.78,3.05,4.24,5.43,7.39,7.13,3.16,1.7,6.72,2.55,10.68,2.55s7.52-.85,10.71-2.55Z"/>
          <path class="cls-2" d="M1314.92,311.05l-27.38,61.31c-2.23,5.13-4.79,8.78-7.71,10.93-2.91,2.15-6.42,3.23-10.51,3.23-2.64,0-5.1-.42-7.39-1.25-2.29-.83-4.27-2.08-5.93-3.75l3.43-5.52c2.78,2.78,6.11,4.16,9.99,4.16,2.5,0,4.63-.69,6.4-2.08,1.77-1.38,3.42-3.75,4.95-7.08l2.39-5.31-24.46-54.65h7.7l20.61,46.52,20.61-46.52h7.29Z"/>
        </g>
      </g>
      <g>
        <path class="cls-2" d="M229.5,0v213.95c57.2,0,103.57-46.37,103.57-103.56V0s-103.57,0-103.57,0Z"/>
        <path class="cls-2" d="M0,0v213.95c57.2,0,103.57-46.37,103.57-103.56V0S0,0,0,0Z"/>
        <path class="cls-2" d="M333.07,417.87v-213.95c-57.2,0-103.57,46.37-103.57,103.56v110.39s103.57,0,103.57,0Z"/>
        <path class="cls-1" d="M0,255.7v-103.57h125.94c57.2,0,103.56,46.37,103.56,103.57H0Z"/>
        <path class="cls-1" d="M103.57,417.87H0v-76.87c0-57.2,46.37-103.56,103.57-103.56v180.44Z"/>
      </g>
    </g>
  </g>
</svg>