<svg xmlns="http://www.w3.org/2000/svg" viewBox="0 0 1317.06 417.87"><defs><style>.cls-1{fill:#fff;}</style></defs><g id="Layer_2" data-name="Layer 2"><g id="Layer_1-2" data-name="Layer 1"><path class="cls-1" d="M601.33,69.44v198.1H555.48V186.32h-90v81.22H419.64V69.44h45.85v78.11h90V69.44Z"/><path class="cls-1" d="M793.5,203.87H678.31A35.91,35.91,0,0,0,693,226.22q11.61,8.22,28.87,8.21A58.59,58.59,0,0,0,743,230.9a51.31,51.31,0,0,0,17.13-11.19l23.48,25.47q-21.51,24.63-62.83,24.63-25.74,0-45.55-10.05t-30.58-27.88q-10.75-17.82-10.75-40.47,0-22.35,10.62-40.32a74.26,74.26,0,0,1,29.15-28q18.52-10,41.46-10,22.35,0,40.47,9.62A70.37,70.37,0,0,1,784,150.23q10.32,18,10.33,41.75Q794.35,192.82,793.5,203.87Zm-103.3-49q-10.19,8.49-12.45,23.21h75q-2.28-14.43-12.46-23.07t-24.9-8.63Q700.38,146.41,690.2,154.9Z"/><path class="cls-1" d="M837.92,265.14q-18.12-4.68-28.86-11.75l14.72-31.7a91.81,91.81,0,0,0,24.62,10.62,103,103,0,0,0,28.29,4.1q28,0,28-13.86c0-4.34-2.54-7.46-7.65-9.35s-12.91-3.48-23.48-4.81a226.69,226.69,0,0,1-30.86-6.5,47.87,47.87,0,0,1-21.07-13q-8.91-9.33-8.92-26.6a41.66,41.66,0,0,1,8.35-25.61q8.32-11.18,24.33-17.41T883.21,113a148.13,148.13,0,0,1,32.12,3.54q16,3.54,26.46,9.76l-14.72,31.42a87.79,87.79,0,0,0-43.86-11.33q-14.16,0-21.23,4t-7.07,10.18q0,7.08,7.64,9.91t24.34,5.38a261,261,0,0,1,30.56,6.65,45.88,45.88,0,0,1,20.66,12.88q8.77,9.33,8.77,26a40.2,40.2,0,0,1-8.49,25.19q-8.48,11-24.77,17.12T875,269.81A148.13,148.13,0,0,1,837.92,265.14Z"/><path class="cls-1" d="M1072.26,260.18a45.24,45.24,0,0,1-16,7.22,80.89,80.89,0,0,1-20,2.41q-27.16,0-42-13.87t-14.86-40.75V152.64H955.94v-34h23.49V81.61h44.15v37.07h37.92v34h-37.92v62q0,9.62,4.95,14.86t14,5.23q10.47,0,17.83-5.66Z"/><path class="cls-1" d="M1099.42,87a22.91,22.91,0,0,1-7.65-17.54,23,23,0,0,1,7.65-17.55q7.63-7.06,19.81-7.08t19.8,6.8a21.73,21.73,0,0,1,7.65,17A24,24,0,0,1,1139,86.84q-7.63,7.22-19.8,7.22T1099.42,87Z"/><rect class="cls-1" x="1097.16" y="115.29" width="44.14" height="152.26"/><path class="cls-1" d="M1298.09,129.86q19,16.83,19,50.8v86.88h-41.32v-19q-12.45,21.22-46.41,21.23-17.55,0-30.43-5.95t-19.67-16.41a42.76,42.76,0,0,1-6.78-23.77q0-21.24,16-33.4t49.39-12.17h35.1q0-14.43-8.79-22.21t-26.31-7.79a77.11,77.11,0,0,0-23.92,3.82,63.29,63.29,0,0,0-20,10.33l-15.85-30.85A96,96,0,0,1,1208,117.83a134.14,134.14,0,0,1,35.82-4.81Q1279.13,113,1298.09,129.86Zm-37.64,105a28.71,28.71,0,0,0,12.47-15.42V203.87h-30.29q-27.17,0-27.17,17.82a15.86,15.86,0,0,0,6.65,13.45c4.44,3.3,10.51,5,18.26,5A38.33,38.33,0,0,0,1260.45,234.85Z"/><path class="cls-1" d="M738.89,299.59H713.28v-6.66H772.2v6.66H746.59v66.2h-7.7Z"/><path class="cls-1" d="M824.88,340.71h-45.8a19.54,19.54,0,0,0,6.55,13.79q5.93,5.26,15,5.26a23.69,23.69,0,0,0,9.37-1.82,20.46,20.46,0,0,0,7.39-5.37l4.17,4.79a23.52,23.52,0,0,1-9.12,6.67,30.9,30.9,0,0,1-12,2.28,30.39,30.39,0,0,1-14.93-3.58,25.9,25.9,0,0,1-10.15-10,28.21,28.21,0,0,1-3.64-14.36,29.37,29.37,0,0,1,3.48-14.36,25.19,25.19,0,0,1,9.58-9.89,28.13,28.13,0,0,1,27.32,0,25.12,25.12,0,0,1,9.48,9.83A29.73,29.73,0,0,1,825,338.42ZM785.16,322a19.7,19.7,0,0,0-6.08,13.16H817.9A19.84,19.84,0,0,0,811.81,322a20.1,20.1,0,0,0-26.65,0Z"/><path class="cls-1" d="M848.24,362.78a25.68,25.68,0,0,1-10-9.94,28.64,28.64,0,0,1-3.64-14.42,28.31,28.31,0,0,1,3.64-14.36,25.62,25.62,0,0,1,10-9.89,29.48,29.48,0,0,1,14.52-3.54,28.19,28.19,0,0,1,12.64,2.75,21,21,0,0,1,8.8,8.07l-5.51,3.75a17.25,17.25,0,0,0-6.88-6.09,20.39,20.39,0,0,0-9-2,21.43,21.43,0,0,0-10.67,2.65,18.81,18.81,0,0,0-7.4,7.55,24.93,24.93,0,0,0,0,22.33,18.78,18.78,0,0,0,7.4,7.49,21.44,21.44,0,0,0,10.67,2.66,20.78,20.78,0,0,0,9-2,16.9,16.9,0,0,0,6.88-6l5.51,3.75a21,21,0,0,1-8.85,8.07,28.2,28.2,0,0,1-12.59,2.75A29.59,29.59,0,0,1,848.24,362.78Z"/><path class="cls-1" d="M942.12,316.61q6.09,6,6.09,17.44v31.74h-7.39v-31c0-5.7-1.42-10-4.27-13s-6.9-4.47-12.18-4.47q-8.83,0-14,5.25t-5.16,14.53v28.72h-7.39V288.56h7.39v32.06a20.07,20.07,0,0,1,8.33-7.39,27.21,27.21,0,0,1,12.18-2.6Q936,310.63,942.12,316.61Z"/><path class="cls-1" d="M1012.59,316.61q6.09,6,6.09,17.44v31.74h-7.39v-31c0-5.7-1.42-10-4.26-13s-6.91-4.47-12.19-4.47q-8.83,0-14,5.25t-5.16,14.53v28.72H968.3V311.05h7.08v10.09a20.6,20.6,0,0,1,8.38-7.76,26.92,26.92,0,0,1,12.44-2.75Q1006.51,310.63,1012.59,316.61Z"/><path class="cls-1" d="M1047.1,362.73a26.23,26.23,0,0,1-10-10,30.15,30.15,0,0,1,0-28.72,25.73,25.73,0,0,1,10-9.89,30.49,30.49,0,0,1,28.52,0,25.28,25.28,0,0,1,9.94,9.89,30.44,30.44,0,0,1,0,28.72,25.76,25.76,0,0,1-9.94,10,30.19,30.19,0,0,1-28.52,0Zm24.72-5.63a18.45,18.45,0,0,0,7.23-7.54,25.08,25.08,0,0,0,0-22.28,18.53,18.53,0,0,0-7.23-7.55,22,22,0,0,0-20.92,0,19,19,0,0,0-7.29,7.55,24.74,24.74,0,0,0,0,22.28,18.91,18.91,0,0,0,7.29,7.54,21.9,21.9,0,0,0,20.92,0Z"/><path class="cls-1" d="M1104.24,288.56h7.39v77.23h-7.39Z"/><path class="cls-1" d="M1140.36,362.73a26.32,26.32,0,0,1-10-10,30.15,30.15,0,0,1,0-28.72,25.82,25.82,0,0,1,10-9.89,30.47,30.47,0,0,1,28.51,0,25.37,25.37,0,0,1,10,9.89,30.51,30.51,0,0,1,0,28.72,25.85,25.85,0,0,1-10,10,30.17,30.17,0,0,1-28.51,0Zm24.71-5.63a18.47,18.47,0,0,0,7.24-7.54,25.08,25.08,0,0,0,0-22.28,18.56,18.56,0,0,0-7.24-7.55,22,22,0,0,0-20.92,0,19,19,0,0,0-7.28,7.55,24.74,24.74,0,0,0,0,22.28,18.89,18.89,0,0,0,7.28,7.54,21.9,21.9,0,0,0,20.92,0Z"/><path class="cls-1" d="M1248.2,311.05v48.08q0,14-6.81,20.67t-20.57,6.71a46,46,0,0,1-14.41-2.24,29.61,29.61,0,0,1-11.09-6.2l3.75-5.61a28.3,28.3,0,0,0,9.62,5.51,35.92,35.92,0,0,0,11.92,2q10.42,0,15.3-4.84t4.9-15v-7a22.36,22.36,0,0,1-9,7.91,27.87,27.87,0,0,1-12.33,2.7,29.07,29.07,0,0,1-14-3.38,24.81,24.81,0,0,1-9.88-9.47,26.59,26.59,0,0,1-3.6-13.79,26.28,26.28,0,0,1,3.6-13.74,24.69,24.69,0,0,1,9.83-9.37,29.36,29.36,0,0,1,14-3.33,27.75,27.75,0,0,1,12.6,2.81,22.7,22.7,0,0,1,9,8.12V311.05Zm-17.28,43.55a18.2,18.2,0,0,0,7.44-7.13,20.35,20.35,0,0,0,2.66-10.4,20.1,20.1,0,0,0-2.66-10.36,18.59,18.59,0,0,0-7.39-7.08,24,24,0,0,0-21.44-.05,18.07,18.07,0,0,0-7.39,7.08,21.75,21.75,0,0,0,0,20.81,18.38,18.38,0,0,0,7.39,7.13,22,22,0,0,0,10.67,2.55A22.34,22.34,0,0,0,1230.92,354.6Z"/><path class="cls-1" d="M1314.92,311.05l-27.38,61.3q-3.35,7.71-7.71,10.93a17.21,17.21,0,0,1-10.51,3.23,21.55,21.55,0,0,1-7.39-1.25,16,16,0,0,1-5.93-3.75l3.43-5.52a13.63,13.63,0,0,0,10,4.17,10.06,10.06,0,0,0,6.4-2.09q2.64-2.07,5-7.07l2.38-5.31-24.46-54.64h7.7L1287,357.57l20.61-46.52Z"/><path class="cls-1" d="M229.5,0V214A103.56,103.56,0,0,0,333.07,110.39V0Z"/><path class="cls-1" d="M0,0V214A103.56,103.56,0,0,0,103.57,110.39V0Z"/><path class="cls-1" d="M333.07,417.87V203.92A103.56,103.56,0,0,0,229.51,307.48V417.87Z"/><path class="cls-1" d="M0,255.7V152.14H125.94A103.55,103.55,0,0,1,229.5,255.7Z"/><path class="cls-1" d="M103.57,417.87H0V341A103.57,103.57,0,0,1,103.57,237.44Z"/></g></g></svg>